<?xml version="1.0" encoding="iso-8859-1"?>
<!-- Generator: Adobe Illustrator 19.0.0, SVG Export Plug-In . SVG Version: 6.00 Build 0)  -->
<svg version="1.1" id="Layer_1" xmlns="http://www.w3.org/2000/svg" xmlns:xlink="http://www.w3.org/1999/xlink" x="0px" y="0px"
	 viewBox="0 0 512 512" style="enable-background:new 0 0 512 512;" xml:space="preserve">
<circle style="fill:#D35933;" cx="256" cy="256" r="256"/>
<path style="fill:#B54324;" d="M512,256c0-0.521-0.017-1.036-0.019-1.557L395.428,134.189l-32.825,29.515v21.371v29.36l15.6,15.6
	l-23.652,69.065l43.132,43.132l-34.226,0.579l-76.319-76.319l-5.91,9.949l-72.032-66.314l-9.049,14.35l63.467,58.677l-181.981,58.64
	l170.153,170.153c1.403,0.022,2.805,0.053,4.211,0.053C397.384,512,512,397.384,512,256z"/>
<polygon style="fill:#273B7A;" points="364.842,226.392 359.671,226.392 359.671,162.633 391.771,130.532 395.428,134.189 
	364.842,164.774 "/>
<rect x="330.904" y="185.079" style="fill:#FFC61B;" width="62.681" height="156.72"/>
<path style="fill:#FFFFFF;" d="M100.107,333.245c0-58.227,47.202-105.429,105.429-105.429s105.429,47.202,105.429,105.429H100.107z"
	/>
<g>
	<path style="fill:#D0D1D3;" d="M205.536,227.816c-0.034,0-0.069,0.003-0.103,0.003v105.425h105.532
		C310.965,275.018,263.763,227.816,205.536,227.816z"/>
	<circle style="fill:#D0D1D3;" cx="205.541" cy="217.85" r="8.549"/>
</g>
<path style="fill:#A6A8AA;" d="M205.536,209.294c-0.036,0-0.069,0.01-0.103,0.01v17.075c0.036,0,0.069,0.01,0.103,0.01
	c4.722,0,8.549-3.827,8.549-8.549S210.258,209.294,205.536,209.294z"/>
<path style="fill:#273B7A;" d="M416.323,345.593H88.781c-4.76,0-8.62-3.86-8.62-8.62v-1.757c0-4.76,3.86-8.62,8.62-8.62h327.542
	c4.76,0,8.62,3.86,8.62,8.62v1.757C424.943,341.733,421.083,345.593,416.323,345.593z"/>
<g>
</g>
<g>
</g>
<g>
</g>
<g>
</g>
<g>
</g>
<g>
</g>
<g>
</g>
<g>
</g>
<g>
</g>
<g>
</g>
<g>
</g>
<g>
</g>
<g>
</g>
<g>
</g>
<g>
</g>
</svg>
